name GIL03_xfast2.mot
datacolumns 153
datarows 4
range 0.56666666 0.59166670
endheader

                time	           pelvis_tx	           pelvis_ty	           pelvis_tz	         pelvis_tilt	         pelvis_list	     pelvis_rotation	       hip_flexion_r	     hip_adduction_r	      hip_rotation_r	        knee_angle_r	       ankle_angle_r	    subtalar_angle_r	         mtp_angle_r	       hip_flexion_l	     hip_adduction_l	      hip_rotation_l	        knee_angle_l	       ankle_angle_l	    subtalar_angle_l	         mtp_angle_l	    lumbar_extension	      lumbar_bending	     lumbar_rotation	     ground_force_vx	     ground_force_vy	     ground_force_vz	     ground_force_px	     ground_force_py	     ground_force_pz	     ground_force_vx	     ground_force_vy	     ground_force_vz	     ground_force_px	     ground_force_py	     ground_force_pz	     ground_torque_x	     ground_torque_y	     ground_torque_z	     ground_torque_x	     ground_torque_y	     ground_torque_z	    ground_marker_px	    ground_marker_py	    ground_marker_pz	    ground_marker_px	    ground_marker_py	    ground_marker_pz	    ground_marker_px	    ground_marker_py	    ground_marker_pz	    ground_marker_px	    ground_marker_py	    ground_marker_pz	    ground_marker_px	    ground_marker_py	    ground_marker_pz	    ground_marker_px	    ground_marker_py	    ground_marker_pz	    ground_marker_px	    ground_marker_py	    ground_marker_pz	    ground_marker_px	    ground_marker_py	    ground_marker_pz	    ground_marker_px	    ground_marker_py	    ground_marker_pz	    ground_marker_px	    ground_marker_py	    ground_marker_pz	    ground_marker_px	    ground_marker_py	    ground_marker_pz	    ground_marker_px	    ground_marker_py	    ground_marker_pz	    ground_marker_px	    ground_marker_py	    ground_marker_pz	    ground_marker_px	    ground_marker_py	    ground_marker_pz	    ground_marker_px	    ground_marker_py	    ground_marker_pz	    ground_marker_px	    ground_marker_py	    ground_marker_pz	    ground_marker_px	    ground_marker_py	    ground_marker_pz	    ground_marker_px	    ground_marker_py	    ground_marker_pz	    ground_marker_px	    ground_marker_py	    ground_marker_pz	    ground_marker_px	    ground_marker_py	    ground_marker_pz	    ground_marker_px	    ground_marker_py	    ground_marker_pz	    ground_marker_px	    ground_marker_py	    ground_marker_pz	    ground_marker_px	    ground_marker_py	    ground_marker_pz	    ground_marker_px	    ground_marker_py	    ground_marker_pz	    ground_marker_px	    ground_marker_py	    ground_marker_pz	    ground_marker_px	    ground_marker_py	    ground_marker_pz	    ground_marker_px	    ground_marker_py	    ground_marker_pz	    ground_marker_px	    ground_marker_py	    ground_marker_pz	    ground_marker_px	    ground_marker_py	    ground_marker_pz	    ground_marker_px	    ground_marker_py	    ground_marker_pz	    ground_marker_px	    ground_marker_py	    ground_marker_pz	    ground_marker_px	    ground_marker_py	    ground_marker_pz	    ground_marker_px	    ground_marker_py	    ground_marker_pz	    ground_marker_px	    ground_marker_py	    ground_marker_pz	    ground_marker_px	    ground_marker_py	    ground_marker_pz	    ground_marker_px	    ground_marker_py	    ground_marker_pz	    ground_marker_px	    ground_marker_py	    ground_marker_pz	
          0.56666666	          1.54682231	          0.89811671	         -0.22541831	         -3.83244801	         -3.44658399	        -11.18257904	         -7.31530809	          7.29363728	          2.78513336	          3.47958708	          3.73436999	          0.00000000	          0.00000000	         28.60766602	        -10.32754803	         -1.60349846	        -56.78459549	         14.52280617	          0.00000000	          0.00000000	        -20.30625343	          5.21364212	         12.37388611	         11.09444589	        237.47752982	        -36.17907968	          1.48302100	          0.00000000	         -0.16424551	          0.00000000	          0.00000000	          0.00000000	          0.89698407	          0.00000000	         -0.27609729	          0.00000000	          1.61325464	          0.00000000	          0.00000000	          0.00000000	          0.00000000	          1.48337877	          0.84236473	         -0.22869200	          1.47522163	          0.83028948	         -0.17052588	          1.48532856	          0.81692827	         -0.28679690	          1.41142261	          0.46285123	         -0.18889804	          1.65086925	          0.47285715	         -0.28935274	          1.36921036	          0.06993454	         -0.21787217	          1.44962060	          0.13979313	         -0.29686245	          1.54682231	          0.89811671	         -0.22541831	          1.52973223	          0.90910822	         -0.12725738	          1.56391251	          0.88712519	         -0.32357925	          1.39120758	          0.94276434	         -0.23546387	          1.40220332	          0.93404192	         -0.28834841	          1.41458595	          0.45956141	         -0.13408774	          1.66669559	          0.48085436	         -0.34088743	          1.40003002	          0.46297055	         -0.23238610	          1.65285420	          0.45852655	         -0.24662688	          1.35398352	          0.06896383	         -0.18252462	          1.45810282	          0.13550907	         -0.33417127	          1.38889945	          0.08254226	         -0.24344462	          1.46989608	          0.14283969	         -0.26801869	          1.45627451	          1.34603071	         -0.22487670	          1.54498231	          1.25660264	         -0.18571173	          1.54584289	          1.26252091	         -0.28875369	          1.53227568	          1.27220082	         -0.24173865	          1.56210589	          1.10013628	         -0.25038785	          1.57524431	          0.61142391	         -0.16836542	          1.70294094	          0.67982900	         -0.24856862	          1.50276911	          0.67053300	         -0.12314408	          1.63764441	          0.69393265	         -0.32411340	          1.48064470	          0.58761883	         -0.12685387	          1.67456698	          0.61507064	         -0.31678712	          1.35046959	          0.18302804	         -0.10338157	          1.49767506	          0.25000852	         -0.39900404	          1.35889840	          0.19268979	         -0.14223887	          1.50528884	          0.24946183	         -0.35689116	          1.47353327	          0.03944550	         -0.16769625	          1.56001067	          0.07767290	         -0.30428421	
          0.57499999	          1.56153548	          0.89717132	         -0.22392341	         -3.78229141	         -2.98070002	        -12.14969254	         -8.78660679	          6.81820297	          2.96665001	          4.25409746	          3.81462812	          0.00000000	          0.00000000	         29.37784958	        -10.44943047	         -1.12334919	        -53.74270248	         14.25808048	          0.00000000	          0.00000000	        -20.19961929	          4.39369535	         12.86694336	         10.66687142	        265.95794766	        -34.55501536	          1.48648425	          0.00000000	         -0.16604532	          0.00000000	          0.00000000	          0.00000000	          0.91004565	          0.00000000	         -0.27712375	          0.00000000	          2.04276416	          0.00000000	          0.00000000	          0.00000000	          0.00000000	          1.49841857	          0.84130251	         -0.22938503	          1.48906112	          0.82903790	         -0.17057846	          1.50133359	          0.81607270	         -0.28668582	          1.41650689	          0.46334800	         -0.19023617	          1.67211711	          0.47456160	         -0.28747356	          1.37036502	          0.07095600	         -0.21964711	          1.49369800	          0.12822627	         -0.29546508	          1.56153548	          0.89717132	         -0.22392341	          1.54262054	          0.90781248	         -0.12606581	          1.58045042	          0.88653016	         -0.32178101	          1.40620625	          0.94165087	         -0.23725337	          1.41794765	          0.93287462	         -0.29010564	          1.41868174	          0.45996785	         -0.13538322	          1.68902731	          0.48313603	         -0.33856928	          1.40596581	          0.46403471	         -0.23468205	          1.67362547	          0.45942724	         -0.24622345	          1.35450435	          0.07019226	         -0.18457423	          1.50307274	          0.12425352	         -0.33259436	          1.39018095	          0.08336638	         -0.24530546	          1.51357460	          0.13228218	         -0.26661956	          1.47275972	          1.34510851	         -0.22471383	          1.56171143	          1.25554919	         -0.18504660	          1.56305611	          1.26076877	         -0.28790757	          1.54924965	          1.27096045	         -0.24113132	          1.57913053	          1.09864891	         -0.24848904	          1.58362246	          0.60829639	         -0.16688703	          1.71932757	          0.68155670	         -0.24445455	          1.51127362	          0.66899496	         -0.12290113	          1.65604019	          0.69527072	         -0.32168612	          1.48729086	          0.58653128	         -0.12725812	          1.69422412	          0.61715978	         -0.31413320	          1.35085642	          0.18438491	         -0.10549758	          1.53562438	          0.24019696	         -0.39805806	          1.36021721	          0.19377889	         -0.14437315	          1.54376698	          0.23999025	         -0.35573572	          1.47380459	          0.03948734	         -0.16811630	          1.60802102	          0.07306865	         -0.30074489	
          0.58333331	          1.57626045	          0.89600980	         -0.22259280	         -3.73036575	         -2.55452156	        -13.08435154	        -10.13945580	          6.36931276	          3.12801361	          4.80967712	          3.97970700	          0.00000000	          0.00000000	         29.99681473	        -10.58162785	         -0.47216129	        -50.37555695	         13.71912003	          0.00000000	          0.00000000	        -20.24089241	          3.63758278	         13.41474152	          9.08399695	        298.08236447	        -32.01986056	          1.48991785	          0.00000000	         -0.16805914	          0.00000000	          0.00000000	          0.00000000	          0.92411005	          0.00000000	         -0.27857513	          0.00000000	          2.58560693	          0.00000000	          0.00000000	          0.00000000	          0.00000000	          1.51357388	          0.84010875	         -0.23017405	          1.50297058	          0.82760906	         -0.17072465	          1.51731825	          0.81498361	         -0.28663138	          1.42241645	          0.46376568	         -0.19176841	          1.69227731	          0.47580650	         -0.28563234	          1.37155223	          0.07204891	         -0.22158118	          1.53851867	          0.11728671	         -0.29427207	          1.57626045	          0.89600980	         -0.22259280	          1.55559731	          0.90635079	         -0.12505268	          1.59692359	          0.88566881	         -0.32013291	          1.42128456	          0.94035381	         -0.23900530	          1.43369448	          0.93150008	         -0.29185757	          1.42364872	          0.46031883	         -0.13689035	          1.71038139	          0.48499620	         -0.33620948	          1.41242373	          0.46502742	         -0.23692335	          1.69291008	          0.45951712	         -0.24665378	          1.35511863	          0.07153329	         -0.18676855	          1.54843557	          0.11392646	         -0.33132085	          1.39170349	          0.08386175	         -0.24730907	          1.55819440	          0.12232450	         -0.26562810	          1.48953927	          1.34392452	         -0.22449465	          1.57844198	          1.25411844	         -0.18439420	          1.58019185	          1.25878179	         -0.28708714	          1.56617916	          1.26940775	         -0.24057670	          1.59576643	          1.09684324	         -0.24684404	          1.59250438	          0.60533887	         -0.16566439	          1.73493457	          0.68239474	         -0.24018729	          1.52043462	          0.66775000	         -0.12280670	          1.67412531	          0.69621563	         -0.31893179	          1.49440300	          0.58507669	         -0.12780757	          1.71320653	          0.61866301	         -0.31138578	          1.35169673	          0.18584439	         -0.10781378	          1.57302320	          0.23130244	         -0.39701742	          1.36204743	          0.19493118	         -0.14677253	          1.58163035	          0.23164074	         -0.35452992	          1.47415102	          0.03955702	         -0.16868024	          1.65604043	          0.06927533	         -0.29814285	
          0.59166670	          1.59106565	          0.89469659	         -0.22142917	         -3.67369938	         -2.16246796	        -13.97163677	        -11.40109921	          5.93315792	          3.24813938	          5.18534279	          4.20765638	          0.00000000	          0.00000000	         30.44864655	        -10.70806217	          0.33556938	        -46.71033859	         12.93458652	          0.00000000	          0.00000000	        -20.39156342	          2.95593834	         13.95224190	          6.78536576	        332.16031354	        -28.67262910	          1.49330042	          0.00000000	         -0.17009216	          0.00000000	          0.00000000	          0.00000000	          0.93749316	          0.00000000	         -0.28008185	          0.00000000	          3.24750684	          0.00000000	          0.00000000	          0.00000000	          0.00000000	          1.52894855	          0.83889818	         -0.23093429	          1.51703024	          0.82605326	         -0.17095914	          1.53333747	          0.81373060	         -0.28663909	          1.42905724	          0.46411970	         -0.19342312	          1.71134460	          0.47657636	         -0.28390056	          1.37276876	          0.07321831	         -0.22358362	          1.58380568	          0.10727395	         -0.29323694	          1.59106565	          0.89469659	         -0.22142917	          1.56875312	          0.90476984	         -0.12421537	          1.61337829	          0.88462329	         -0.31864297	          1.43647611	          0.93892431	         -0.24069296	          1.44951212	          0.92998075	         -0.29353797	          1.42938232	          0.46063390	         -0.13853467	          1.73073590	          0.48640835	         -0.33387622	          1.42412615	          0.46488556	         -0.23982482	          1.71092200	          0.45897803	         -0.24732478	          1.35581946	          0.07299186	         -0.18901601	          1.59391141	          0.10472086	         -0.33029911	          1.39356530	          0.08437244	         -0.24936786	          1.60382450	          0.11303072	         -0.26460502	          1.50648081	          1.34256637	         -0.22421178	          1.59509647	          1.25241065	         -0.18379313	          1.59724867	          1.25664651	         -0.28637820	          1.58305228	          1.26763904	         -0.24008633	          1.61206067	          1.09481740	         -0.24548239	          1.60185170	          0.60246927	         -0.16463044	          1.74983311	          0.68241715	         -0.23585603	          1.53021514	          0.66666520	         -0.12281507	          1.69161642	          0.69671172	         -0.31593013	          1.50437725	          0.58454937	         -0.12866354	          1.73139560	          0.61954314	         -0.30842480	          1.35295343	          0.18743338	         -0.11023644	          1.60972583	          0.22336903	         -0.39590982	          1.36429214	          0.19622594	         -0.14953050	          1.61851859	          0.22452074	         -0.35325274	          1.47455299	          0.03965535	         -0.16935302	          1.70383513	          0.06645112	         -0.29635426	
